# xmcd CD database file
#
# Track frame offsets:
#	150
#	21901
#	37796
#	49740
#	67941
#	83552
#	101042
#	115384
#	127667
#	151201
#	169069
#	191032
#	208587
#	230691
#	247564
#	261020
#	277585
#	299446
#	318978
#
# Disc length: 4481 seconds
#
# Revision: 2
# Processed by: cddbd v1.4b41PL1 Copyright (c) Steve Scherf et al.
# Submitted via: Feurio! 1.52 - http://www.feurio.com
#
DISCID=f3117f13
DTITLE=Lenny - 2
DYEAR=1900
DGENRE=
TTITLE0=Lenny Kravitz - What Goes Around Comes Around.
TTITLE1=Lenny Kravitz - Are You Gonna Go My Way.mp3
TTITLE2=Lenny Kravitz - Stop Draggin' Around.mp3
TTITLE3=Lenny Kravitz - It Ain't Over 'til It's Over.m
TTITLE4=Lenny Kravitz - More Than Anything In This Wor
TTITLE5=Lenny Kravitz - My Love.mp3
TTITLE6=Lenny Kravitz - Heaven Help.mp3
TTITLE7=Lenny Kravitz - Flowers For Zoe.mp3
TTITLE8=Lenny Kravitz - What The .... Are We Saying-.m
TTITLE9=Lenny Kravitz - Sugar.mp3
TTITLE10=Lenny Kravitz - The Difference Is Why.mp3
TTITLE11=Lenny Kravitz - Come On And Love Me.mp3
TTITLE12=Lenny Kravitz - Believe.mp3
TTITLE13=Lenny Kravitz - Black Girl.mp3
TTITLE14=Lenny Kravitz - When The Morning Turns To Nigh
TTITLE15=Lenny Kravitz - Is There Any Love In Your Hear
TTITLE16=Lenny Kravitz - Eleutheria.mp3
TTITLE17=Lenny Kravitz - Stand By My Woman.mp3
TTITLE18=Lenny Kravitz - Just Be A Woman.mp3
EXTD=
EXTT0=
EXTT1=
EXTT2=
EXTT3=
EXTT4=
EXTT5=
EXTT6=
EXTT7=
EXTT8=
EXTT9=
EXTT10=
EXTT11=
EXTT12=
EXTT13=
EXTT14=
EXTT15=
EXTT16=
EXTT17=
EXTT18=
PLAYORDER=
